# xmcd
#
# Track frame offsets: 
#        150
#        19249
#        39892
#        61957
#        82196
#        100272
#        120231
#        137594
#        156151
#        173648
#        190794
#        208214
#
# Disc length: 3092 seconds
#
# Revision: 0
# Processed by: cddbd v1.5.2PL0 Copyright (c) Steve Scherf et al.
# Submitted via: ExactAudioCopy v1.3
#
DISCID=990c120c
DTITLE=Roseanne Cash - Cambridge Folk Festival
DYEAR=2003
DGENRE=Country
TTITLE0=44 Stories
TTITLE1=Hope Against Hope
TTITLE2=What We Really Want
TTITLE3=September When It Comes
TTITLE4=Rules of Travel
TTITLE5=The Winding Stream
TTITLE6=I Don't Know Why
TTITLE7=Runaway Train
TTITLE8=Tennessee Flat Top Box
TTITLE9=Western Wail
TTITLE10=Seven Year Ache
TTITLE11=707
EXTD=
EXTT0=
EXTT1=
EXTT2=
EXTT3=
EXTT4=
EXTT5=
EXTT6=
EXTT7=
EXTT8=
EXTT9=
EXTT10=
EXTT11=
PLAYORDER=
